<mxfile host="Electron" modified="2023-09-18T13:24:32.406Z" agent="Mozilla/5.0 (Macintosh; Intel Mac OS X 10_15_7) AppleWebKit/537.36 (KHTML, like Gecko) draw.io/21.6.5 Chrome/114.0.5735.243 Electron/25.3.1 Safari/537.36" etag="sax6RniXT0FA0qG3qEZC" version="21.6.5" type="device">
  <diagram name="Page-1" id="7qWeqGmdUIMSvMaVxC2Z">
    <mxGraphModel dx="1466" dy="1790" grid="1" gridSize="10" guides="1" tooltips="1" connect="1" arrows="1" fold="1" page="1" pageScale="1" pageWidth="1100" pageHeight="850" math="0" shadow="0">
      <root>
        <mxCell id="0" />
        <mxCell id="1" parent="0" />
        <mxCell id="9r9zIMGVRPfAhy_iePYk-91" value="" style="rounded=0;whiteSpace=wrap;html=1;strokeColor=none;" parent="1" vertex="1">
          <mxGeometry x="40" y="-10" width="1390" height="1010" as="geometry" />
        </mxCell>
        <mxCell id="2cL5k20LGx7MLXg2ZPZY-73" style="edgeStyle=orthogonalEdgeStyle;rounded=0;orthogonalLoop=1;jettySize=auto;html=1;entryX=0.5;entryY=0;entryDx=0;entryDy=0;fontFamily=Helvetica;" parent="1" source="rSTGFEO1jFMD9Ot6lzbd-6" edge="1">
          <mxGeometry relative="1" as="geometry">
            <mxPoint x="940" y="170.00000000000023" as="targetPoint" />
          </mxGeometry>
        </mxCell>
        <mxCell id="rSTGFEO1jFMD9Ot6lzbd-6" value="&lt;font style=&quot;font-size: 14px;&quot;&gt;Start&lt;br&gt;&lt;/font&gt;" style="rounded=1;whiteSpace=wrap;html=1;fontFamily=Helvetica;" parent="1" vertex="1">
          <mxGeometry x="900" y="60" width="80" height="60" as="geometry" />
        </mxCell>
        <mxCell id="2cL5k20LGx7MLXg2ZPZY-4" value="" style="edgeStyle=orthogonalEdgeStyle;rounded=0;orthogonalLoop=1;jettySize=auto;html=1;exitX=0.5;exitY=1;exitDx=0;exitDy=0;fontFamily=Helvetica;entryX=0.5;entryY=0;entryDx=0;entryDy=0;" parent="1" target="6n5WaVB1s2QaaP87F6nN-7" edge="1">
          <mxGeometry relative="1" as="geometry">
            <mxPoint x="379.9999999999998" y="170.00000000000023" as="targetPoint" />
            <mxPoint x="379.9999999999998" y="120.00000000000023" as="sourcePoint" />
          </mxGeometry>
        </mxCell>
        <mxCell id="2cL5k20LGx7MLXg2ZPZY-31" style="edgeStyle=orthogonalEdgeStyle;rounded=0;orthogonalLoop=1;jettySize=auto;html=1;exitX=0.5;exitY=1;exitDx=0;exitDy=0;fontFamily=Helvetica;" parent="1" edge="1">
          <mxGeometry relative="1" as="geometry">
            <mxPoint x="379.9999999999998" y="230.00000000000023" as="sourcePoint" />
            <mxPoint x="380.027027027027" y="279.9999999999998" as="targetPoint" />
          </mxGeometry>
        </mxCell>
        <mxCell id="9r9zIMGVRPfAhy_iePYk-66" style="edgeStyle=orthogonalEdgeStyle;rounded=0;orthogonalLoop=1;jettySize=auto;html=1;entryX=0;entryY=0.5;entryDx=0;entryDy=0;" parent="1" source="2cL5k20LGx7MLXg2ZPZY-7" target="9r9zIMGVRPfAhy_iePYk-65" edge="1">
          <mxGeometry relative="1" as="geometry" />
        </mxCell>
        <mxCell id="2cL5k20LGx7MLXg2ZPZY-7" value="Connect to wallet to deposit margin" style="rounded=0;whiteSpace=wrap;html=1;fontFamily=Helvetica;" parent="1" vertex="1">
          <mxGeometry x="878.75" y="290" width="122.5" height="60" as="geometry" />
        </mxCell>
        <mxCell id="2cL5k20LGx7MLXg2ZPZY-10" value="Centralized Order book" style="text;html=1;align=center;verticalAlign=middle;resizable=0;points=[];autosize=1;strokeColor=none;fillColor=none;fontFamily=Helvetica;fontStyle=1;fontSize=15;" parent="1" vertex="1">
          <mxGeometry x="40" y="10" width="190" height="30" as="geometry" />
        </mxCell>
        <mxCell id="2cL5k20LGx7MLXg2ZPZY-11" value="Decentralized AMM" style="text;html=1;align=center;verticalAlign=middle;resizable=0;points=[];autosize=1;strokeColor=none;fillColor=none;fontFamily=Helvetica;fontStyle=1;fontSize=15;" parent="1" vertex="1">
          <mxGeometry x="720" y="10" width="160" height="30" as="geometry" />
        </mxCell>
        <mxCell id="2cL5k20LGx7MLXg2ZPZY-12" value="Selecting Contract" style="text;html=1;align=center;verticalAlign=middle;resizable=0;points=[];autosize=1;strokeColor=none;fillColor=none;fontFamily=Helvetica;" parent="1" vertex="1">
          <mxGeometry x="47.5" y="220" width="120" height="30" as="geometry" />
        </mxCell>
        <mxCell id="2cL5k20LGx7MLXg2ZPZY-13" value="Opening position" style="text;html=1;align=center;verticalAlign=middle;resizable=0;points=[];autosize=1;strokeColor=none;fillColor=none;fontFamily=Helvetica;" parent="1" vertex="1">
          <mxGeometry x="47.5" y="480" width="110" height="30" as="geometry" />
        </mxCell>
        <mxCell id="2cL5k20LGx7MLXg2ZPZY-14" value="Charge&lt;br&gt;funding fee &lt;br&gt;every 8 hours" style="rounded=0;whiteSpace=wrap;html=1;fontFamily=Helvetica;" parent="1" vertex="1">
          <mxGeometry x="210" y="797.5" width="120" height="40" as="geometry" />
        </mxCell>
        <mxCell id="2cL5k20LGx7MLXg2ZPZY-34" style="edgeStyle=orthogonalEdgeStyle;rounded=0;orthogonalLoop=1;jettySize=auto;html=1;exitX=0.5;exitY=1;exitDx=0;exitDy=0;entryX=0.5;entryY=0;entryDx=0;entryDy=0;fontFamily=Helvetica;" parent="1" source="9r9zIMGVRPfAhy_iePYk-23" target="2cL5k20LGx7MLXg2ZPZY-14" edge="1">
          <mxGeometry relative="1" as="geometry">
            <mxPoint x="237.5" y="680" as="sourcePoint" />
          </mxGeometry>
        </mxCell>
        <mxCell id="9r9zIMGVRPfAhy_iePYk-26" value="Yes" style="edgeLabel;html=1;align=center;verticalAlign=middle;resizable=0;points=[];" parent="2cL5k20LGx7MLXg2ZPZY-34" vertex="1" connectable="0">
          <mxGeometry x="-0.1429" y="2" relative="1" as="geometry">
            <mxPoint as="offset" />
          </mxGeometry>
        </mxCell>
        <mxCell id="9r9zIMGVRPfAhy_iePYk-51" style="edgeStyle=orthogonalEdgeStyle;rounded=0;orthogonalLoop=1;jettySize=auto;html=1;entryX=0;entryY=0.5;entryDx=0;entryDy=0;exitX=0.417;exitY=0.996;exitDx=0;exitDy=0;exitPerimeter=0;" parent="1" source="2cL5k20LGx7MLXg2ZPZY-20" target="2cL5k20LGx7MLXg2ZPZY-29" edge="1">
          <mxGeometry relative="1" as="geometry" />
        </mxCell>
        <mxCell id="2cL5k20LGx7MLXg2ZPZY-20" value="&lt;font&gt;Withdraw execution&lt;br&gt;Charge Market taker fee&lt;/font&gt;" style="rounded=0;whiteSpace=wrap;html=1;fontFamily=Helvetica;" parent="1" vertex="1">
          <mxGeometry x="350" y="797.5" width="120" height="40" as="geometry" />
        </mxCell>
        <mxCell id="9r9zIMGVRPfAhy_iePYk-52" style="edgeStyle=orthogonalEdgeStyle;rounded=0;orthogonalLoop=1;jettySize=auto;html=1;entryX=1;entryY=0.5;entryDx=0;entryDy=0;exitX=0.5;exitY=1;exitDx=0;exitDy=0;" parent="1" source="2cL5k20LGx7MLXg2ZPZY-21" target="2cL5k20LGx7MLXg2ZPZY-29" edge="1">
          <mxGeometry relative="1" as="geometry">
            <Array as="points">
              <mxPoint x="635" y="958" />
            </Array>
          </mxGeometry>
        </mxCell>
        <mxCell id="2cL5k20LGx7MLXg2ZPZY-21" value="Liquidation execution&lt;br&gt;Charge Liquidation fee&lt;br&gt;+ Market taker fee" style="rounded=0;whiteSpace=wrap;html=1;fontFamily=Helvetica;" parent="1" vertex="1">
          <mxGeometry x="560" y="796.25" width="150" height="42.5" as="geometry" />
        </mxCell>
        <mxCell id="2cL5k20LGx7MLXg2ZPZY-29" value="End" style="rounded=1;whiteSpace=wrap;html=1;" parent="1" vertex="1">
          <mxGeometry x="460" y="927.5" width="80" height="60" as="geometry" />
        </mxCell>
        <mxCell id="2cL5k20LGx7MLXg2ZPZY-43" style="edgeStyle=orthogonalEdgeStyle;rounded=0;orthogonalLoop=1;jettySize=auto;html=1;exitX=0.5;exitY=1;exitDx=0;exitDy=0;entryX=0.5;entryY=0;entryDx=0;entryDy=0;fontFamily=Helvetica;" parent="1" target="2cL5k20LGx7MLXg2ZPZY-7" edge="1">
          <mxGeometry relative="1" as="geometry">
            <mxPoint x="940" y="230.00000000000023" as="sourcePoint" />
          </mxGeometry>
        </mxCell>
        <mxCell id="9r9zIMGVRPfAhy_iePYk-73" style="edgeStyle=orthogonalEdgeStyle;rounded=0;orthogonalLoop=1;jettySize=auto;html=1;exitX=0;exitY=0.5;exitDx=0;exitDy=0;entryX=0.5;entryY=0;entryDx=0;entryDy=0;" parent="1" source="2cL5k20LGx7MLXg2ZPZY-46" target="9r9zIMGVRPfAhy_iePYk-72" edge="1">
          <mxGeometry relative="1" as="geometry" />
        </mxCell>
        <mxCell id="2cL5k20LGx7MLXg2ZPZY-46" value="Monitor opened position" style="rounded=0;whiteSpace=wrap;html=1;fontFamily=Helvetica;" parent="1" vertex="1">
          <mxGeometry x="865" y="430" width="150" height="50" as="geometry" />
        </mxCell>
        <mxCell id="2cL5k20LGx7MLXg2ZPZY-48" value="Calculate Funding Fee: unsettled funding fee" style="rounded=0;whiteSpace=wrap;html=1;fontFamily=Helvetica;" parent="1" vertex="1">
          <mxGeometry x="765" y="797.5" width="130" height="40" as="geometry" />
        </mxCell>
        <mxCell id="9r9zIMGVRPfAhy_iePYk-85" style="edgeStyle=orthogonalEdgeStyle;rounded=0;orthogonalLoop=1;jettySize=auto;html=1;entryX=0;entryY=0.5;entryDx=0;entryDy=0;" parent="1" source="2cL5k20LGx7MLXg2ZPZY-57" target="2cL5k20LGx7MLXg2ZPZY-61" edge="1">
          <mxGeometry relative="1" as="geometry" />
        </mxCell>
        <mxCell id="2cL5k20LGx7MLXg2ZPZY-57" value="&lt;p data-pm-slice=&quot;1 1 []&quot;&gt;Settle the previous pending funding fee&amp;nbsp;&lt;/p&gt;" style="rounded=0;whiteSpace=wrap;html=1;fontFamily=Helvetica;" parent="1" vertex="1">
          <mxGeometry x="920" y="798.75" width="120" height="40" as="geometry" />
        </mxCell>
        <mxCell id="9r9zIMGVRPfAhy_iePYk-86" style="edgeStyle=orthogonalEdgeStyle;rounded=0;orthogonalLoop=1;jettySize=auto;html=1;entryX=1;entryY=0.5;entryDx=0;entryDy=0;exitX=0.558;exitY=1.017;exitDx=0;exitDy=0;exitPerimeter=0;" parent="1" source="2cL5k20LGx7MLXg2ZPZY-59" target="2cL5k20LGx7MLXg2ZPZY-61" edge="1">
          <mxGeometry relative="1" as="geometry" />
        </mxCell>
        <mxCell id="2cL5k20LGx7MLXg2ZPZY-59" value="&lt;font&gt;Liquidation p&lt;/font&gt;enalty &lt;br&gt;+ forced settlment of funding fee" style="rounded=0;whiteSpace=wrap;html=1;fontFamily=Helvetica;" parent="1" vertex="1">
          <mxGeometry x="1080" y="798.75" width="180" height="40" as="geometry" />
        </mxCell>
        <mxCell id="2cL5k20LGx7MLXg2ZPZY-61" value="End" style="rounded=1;whiteSpace=wrap;html=1;" parent="1" vertex="1">
          <mxGeometry x="1021" y="927.5" width="80" height="60" as="geometry" />
        </mxCell>
        <mxCell id="2cL5k20LGx7MLXg2ZPZY-75" value="" style="endArrow=none;dashed=1;html=1;dashPattern=1 3;strokeWidth=2;rounded=0;fontFamily=Helvetica;" parent="1" edge="1">
          <mxGeometry width="50" height="50" relative="1" as="geometry">
            <mxPoint x="50" y="130" as="sourcePoint" />
            <mxPoint x="1420" y="130" as="targetPoint" />
          </mxGeometry>
        </mxCell>
        <mxCell id="2cL5k20LGx7MLXg2ZPZY-76" value="" style="endArrow=none;dashed=1;html=1;rounded=0;" parent="1" edge="1">
          <mxGeometry width="50" height="50" relative="1" as="geometry">
            <mxPoint x="720" y="990" as="sourcePoint" />
            <mxPoint x="720" y="10" as="targetPoint" />
          </mxGeometry>
        </mxCell>
        <mxCell id="2cL5k20LGx7MLXg2ZPZY-77" value="" style="endArrow=none;dashed=1;html=1;dashPattern=1 3;strokeWidth=2;rounded=0;fontFamily=Helvetica;" parent="1" edge="1">
          <mxGeometry width="50" height="50" relative="1" as="geometry">
            <mxPoint x="50" y="250" as="sourcePoint" />
            <mxPoint x="1420" y="250" as="targetPoint" />
          </mxGeometry>
        </mxCell>
        <mxCell id="2cL5k20LGx7MLXg2ZPZY-78" value="" style="endArrow=none;dashed=1;html=1;dashPattern=1 3;strokeWidth=2;rounded=0;fontFamily=Helvetica;" parent="1" edge="1">
          <mxGeometry width="50" height="50" relative="1" as="geometry">
            <mxPoint x="50" y="510" as="sourcePoint" />
            <mxPoint x="1420" y="510" as="targetPoint" />
          </mxGeometry>
        </mxCell>
        <mxCell id="6n5WaVB1s2QaaP87F6nN-7" value="Is valid contract &lt;br&gt;selected?" style="rhombus;whiteSpace=wrap;html=1;" parent="1" vertex="1">
          <mxGeometry x="297.5" y="165" width="165" height="70" as="geometry" />
        </mxCell>
        <mxCell id="6n5WaVB1s2QaaP87F6nN-9" value="&lt;font style=&quot;font-size: 14px;&quot;&gt;Start&lt;br&gt;&lt;/font&gt;" style="rounded=1;whiteSpace=wrap;html=1;fontFamily=Helvetica;" parent="1" vertex="1">
          <mxGeometry x="340" y="60" width="80" height="60" as="geometry" />
        </mxCell>
        <mxCell id="9r9zIMGVRPfAhy_iePYk-1" value="Yes" style="text;html=1;strokeColor=none;fillColor=none;align=center;verticalAlign=middle;whiteSpace=wrap;rounded=0;" parent="1" vertex="1">
          <mxGeometry x="365" y="230" width="50" height="20" as="geometry" />
        </mxCell>
        <mxCell id="9r9zIMGVRPfAhy_iePYk-5" value="" style="endArrow=none;html=1;rounded=0;" parent="1" edge="1">
          <mxGeometry width="50" height="50" relative="1" as="geometry">
            <mxPoint x="462.5" y="199.97000000000003" as="sourcePoint" />
            <mxPoint x="520" y="199.64000000000001" as="targetPoint" />
          </mxGeometry>
        </mxCell>
        <mxCell id="9r9zIMGVRPfAhy_iePYk-7" value="" style="endArrow=none;html=1;rounded=0;" parent="1" edge="1">
          <mxGeometry width="50" height="50" relative="1" as="geometry">
            <mxPoint x="520" y="200" as="sourcePoint" />
            <mxPoint x="520" y="100" as="targetPoint" />
          </mxGeometry>
        </mxCell>
        <mxCell id="9r9zIMGVRPfAhy_iePYk-8" value="" style="endArrow=classic;html=1;rounded=0;entryX=0.997;entryY=0.675;entryDx=0;entryDy=0;entryPerimeter=0;" parent="1" target="6n5WaVB1s2QaaP87F6nN-9" edge="1">
          <mxGeometry width="50" height="50" relative="1" as="geometry">
            <mxPoint x="520" y="100" as="sourcePoint" />
            <mxPoint x="500" y="60" as="targetPoint" />
          </mxGeometry>
        </mxCell>
        <mxCell id="9r9zIMGVRPfAhy_iePYk-9" value="No" style="text;html=1;strokeColor=none;fillColor=none;align=center;verticalAlign=middle;whiteSpace=wrap;rounded=0;" parent="1" vertex="1">
          <mxGeometry x="445" y="180" width="60" height="30" as="geometry" />
        </mxCell>
        <mxCell id="9r9zIMGVRPfAhy_iePYk-11" style="edgeStyle=orthogonalEdgeStyle;rounded=0;orthogonalLoop=1;jettySize=auto;html=1;entryX=0;entryY=0.5;entryDx=0;entryDy=0;exitX=0;exitY=0.5;exitDx=0;exitDy=0;" parent="1" source="9r9zIMGVRPfAhy_iePYk-10" target="6n5WaVB1s2QaaP87F6nN-7" edge="1">
          <mxGeometry relative="1" as="geometry">
            <Array as="points">
              <mxPoint x="277" y="290" />
              <mxPoint x="277" y="200" />
            </Array>
          </mxGeometry>
        </mxCell>
        <mxCell id="9r9zIMGVRPfAhy_iePYk-68" style="edgeStyle=orthogonalEdgeStyle;rounded=0;orthogonalLoop=1;jettySize=auto;html=1;entryX=0.5;entryY=0;entryDx=0;entryDy=0;" parent="1" source="9r9zIMGVRPfAhy_iePYk-10" target="9r9zIMGVRPfAhy_iePYk-14" edge="1">
          <mxGeometry relative="1" as="geometry" />
        </mxCell>
        <mxCell id="9r9zIMGVRPfAhy_iePYk-10" value="Is deposited?" style="rhombus;whiteSpace=wrap;html=1;" parent="1" vertex="1">
          <mxGeometry x="310" y="260" width="140" height="60" as="geometry" />
        </mxCell>
        <mxCell id="9r9zIMGVRPfAhy_iePYk-12" value="No" style="text;html=1;strokeColor=none;fillColor=none;align=center;verticalAlign=middle;whiteSpace=wrap;rounded=0;" parent="1" vertex="1">
          <mxGeometry x="290" y="260" width="40" height="30" as="geometry" />
        </mxCell>
        <mxCell id="9r9zIMGVRPfAhy_iePYk-13" value="Yes" style="text;html=1;strokeColor=none;fillColor=none;align=center;verticalAlign=middle;whiteSpace=wrap;rounded=0;" parent="1" vertex="1">
          <mxGeometry x="365" y="310" width="60" height="30" as="geometry" />
        </mxCell>
        <mxCell id="9r9zIMGVRPfAhy_iePYk-20" style="edgeStyle=orthogonalEdgeStyle;rounded=0;orthogonalLoop=1;jettySize=auto;html=1;entryX=0;entryY=0.5;entryDx=0;entryDy=0;" parent="1" source="9r9zIMGVRPfAhy_iePYk-14" target="9r9zIMGVRPfAhy_iePYk-19" edge="1">
          <mxGeometry relative="1" as="geometry" />
        </mxCell>
        <mxCell id="9r9zIMGVRPfAhy_iePYk-14" value="Submit order" style="rounded=0;whiteSpace=wrap;html=1;" parent="1" vertex="1">
          <mxGeometry x="320" y="340" width="120" height="50" as="geometry" />
        </mxCell>
        <mxCell id="9r9zIMGVRPfAhy_iePYk-21" style="edgeStyle=orthogonalEdgeStyle;rounded=0;orthogonalLoop=1;jettySize=auto;html=1;entryX=1.004;entryY=0.398;entryDx=0;entryDy=0;entryPerimeter=0;" parent="1" target="9r9zIMGVRPfAhy_iePYk-22" edge="1">
          <mxGeometry relative="1" as="geometry">
            <mxPoint x="444.9999999999998" y="469.95000000000005" as="targetPoint" />
            <mxPoint x="559.74" y="380" as="sourcePoint" />
            <Array as="points">
              <mxPoint x="560" y="450" />
              <mxPoint x="445" y="450" />
              <mxPoint x="445" y="449" />
            </Array>
          </mxGeometry>
        </mxCell>
        <mxCell id="9r9zIMGVRPfAhy_iePYk-94" value="Yes" style="edgeLabel;html=1;align=center;verticalAlign=middle;resizable=0;points=[];" parent="9r9zIMGVRPfAhy_iePYk-21" vertex="1" connectable="0">
          <mxGeometry x="-0.6602" y="-1" relative="1" as="geometry">
            <mxPoint as="offset" />
          </mxGeometry>
        </mxCell>
        <mxCell id="9r9zIMGVRPfAhy_iePYk-19" value="Is filled" style="rhombus;whiteSpace=wrap;html=1;" parent="1" vertex="1">
          <mxGeometry x="520" y="340" width="80" height="50" as="geometry" />
        </mxCell>
        <mxCell id="9r9zIMGVRPfAhy_iePYk-25" style="edgeStyle=orthogonalEdgeStyle;rounded=0;orthogonalLoop=1;jettySize=auto;html=1;entryX=0.5;entryY=0;entryDx=0;entryDy=0;" parent="1" source="9r9zIMGVRPfAhy_iePYk-22" target="9r9zIMGVRPfAhy_iePYk-23" edge="1">
          <mxGeometry relative="1" as="geometry">
            <Array as="points">
              <mxPoint x="270" y="455" />
            </Array>
          </mxGeometry>
        </mxCell>
        <mxCell id="9r9zIMGVRPfAhy_iePYk-22" value="Trade execution&lt;br&gt;Charge execution Fee" style="rounded=0;whiteSpace=wrap;html=1;" parent="1" vertex="1">
          <mxGeometry x="320" y="425" width="120" height="60" as="geometry" />
        </mxCell>
        <mxCell id="bipFphcELUd_ku-ffHA3-1" style="edgeStyle=orthogonalEdgeStyle;rounded=0;orthogonalLoop=1;jettySize=auto;html=1;entryX=0;entryY=0.5;entryDx=0;entryDy=0;" edge="1" parent="1" source="9r9zIMGVRPfAhy_iePYk-23" target="9r9zIMGVRPfAhy_iePYk-42">
          <mxGeometry relative="1" as="geometry" />
        </mxCell>
        <mxCell id="bipFphcELUd_ku-ffHA3-2" value="No" style="edgeLabel;html=1;align=center;verticalAlign=middle;resizable=0;points=[];" vertex="1" connectable="0" parent="bipFphcELUd_ku-ffHA3-1">
          <mxGeometry x="-0.1385" relative="1" as="geometry">
            <mxPoint y="1" as="offset" />
          </mxGeometry>
        </mxCell>
        <mxCell id="9r9zIMGVRPfAhy_iePYk-23" value="Is position &lt;br&gt;opening?" style="rhombus;whiteSpace=wrap;html=1;" parent="1" vertex="1">
          <mxGeometry x="220" y="582.5" width="100" height="60" as="geometry" />
        </mxCell>
        <mxCell id="9r9zIMGVRPfAhy_iePYk-47" style="edgeStyle=orthogonalEdgeStyle;rounded=0;orthogonalLoop=1;jettySize=auto;html=1;" parent="1" source="9r9zIMGVRPfAhy_iePYk-42" edge="1">
          <mxGeometry relative="1" as="geometry">
            <mxPoint x="500" y="687.5" as="targetPoint" />
          </mxGeometry>
        </mxCell>
        <mxCell id="9r9zIMGVRPfAhy_iePYk-42" value="Is closed？" style="rhombus;whiteSpace=wrap;html=1;" parent="1" vertex="1">
          <mxGeometry x="450" y="580" width="100" height="65" as="geometry" />
        </mxCell>
        <mxCell id="9r9zIMGVRPfAhy_iePYk-49" style="edgeStyle=orthogonalEdgeStyle;rounded=0;orthogonalLoop=1;jettySize=auto;html=1;exitX=0;exitY=0.5;exitDx=0;exitDy=0;entryX=0.411;entryY=-0.107;entryDx=0;entryDy=0;entryPerimeter=0;" parent="1" source="9r9zIMGVRPfAhy_iePYk-48" target="2cL5k20LGx7MLXg2ZPZY-20" edge="1">
          <mxGeometry relative="1" as="geometry" />
        </mxCell>
        <mxCell id="9r9zIMGVRPfAhy_iePYk-50" style="edgeStyle=orthogonalEdgeStyle;rounded=0;orthogonalLoop=1;jettySize=auto;html=1;entryX=0.5;entryY=0;entryDx=0;entryDy=0;" parent="1" source="9r9zIMGVRPfAhy_iePYk-48" target="2cL5k20LGx7MLXg2ZPZY-21" edge="1">
          <mxGeometry relative="1" as="geometry" />
        </mxCell>
        <mxCell id="9r9zIMGVRPfAhy_iePYk-48" value="Is being liquidated?" style="rhombus;whiteSpace=wrap;html=1;" parent="1" vertex="1">
          <mxGeometry x="450" y="687.5" width="100" height="65" as="geometry" />
        </mxCell>
        <mxCell id="9r9zIMGVRPfAhy_iePYk-63" style="edgeStyle=orthogonalEdgeStyle;rounded=0;orthogonalLoop=1;jettySize=auto;html=1;entryX=1;entryY=0.5;entryDx=0;entryDy=0;" parent="1" source="9r9zIMGVRPfAhy_iePYk-54" target="rSTGFEO1jFMD9Ot6lzbd-6" edge="1">
          <mxGeometry relative="1" as="geometry">
            <Array as="points">
              <mxPoint x="1080" y="200" />
              <mxPoint x="1080" y="90" />
            </Array>
          </mxGeometry>
        </mxCell>
        <mxCell id="9r9zIMGVRPfAhy_iePYk-54" value="Is valid contract &lt;br&gt;selected?" style="rhombus;whiteSpace=wrap;html=1;" parent="1" vertex="1">
          <mxGeometry x="873.75" y="167.5" width="132.5" height="65" as="geometry" />
        </mxCell>
        <mxCell id="9r9zIMGVRPfAhy_iePYk-56" value="Yes" style="text;html=1;strokeColor=none;fillColor=none;align=center;verticalAlign=middle;whiteSpace=wrap;rounded=0;" parent="1" vertex="1">
          <mxGeometry x="930" y="230" width="50" height="20" as="geometry" />
        </mxCell>
        <mxCell id="9r9zIMGVRPfAhy_iePYk-60" value="No" style="text;html=1;strokeColor=none;fillColor=none;align=center;verticalAlign=middle;whiteSpace=wrap;rounded=0;" parent="1" vertex="1">
          <mxGeometry x="980" y="180" width="60" height="30" as="geometry" />
        </mxCell>
        <mxCell id="9r9zIMGVRPfAhy_iePYk-61" value="Yes" style="text;html=1;strokeColor=none;fillColor=none;align=center;verticalAlign=middle;whiteSpace=wrap;rounded=0;" parent="1" vertex="1">
          <mxGeometry x="535" y="692.5" width="60" height="30" as="geometry" />
        </mxCell>
        <mxCell id="9r9zIMGVRPfAhy_iePYk-62" value="No" style="text;html=1;strokeColor=none;fillColor=none;align=center;verticalAlign=middle;whiteSpace=wrap;rounded=0;" parent="1" vertex="1">
          <mxGeometry x="410" y="692.5" width="60" height="30" as="geometry" />
        </mxCell>
        <mxCell id="9r9zIMGVRPfAhy_iePYk-67" style="edgeStyle=orthogonalEdgeStyle;rounded=0;orthogonalLoop=1;jettySize=auto;html=1;entryX=0.5;entryY=0;entryDx=0;entryDy=0;" parent="1" source="9r9zIMGVRPfAhy_iePYk-65" target="rSTGFEO1jFMD9Ot6lzbd-6" edge="1">
          <mxGeometry relative="1" as="geometry">
            <Array as="points">
              <mxPoint x="1165" y="40" />
              <mxPoint x="940" y="40" />
            </Array>
          </mxGeometry>
        </mxCell>
        <mxCell id="9r9zIMGVRPfAhy_iePYk-69" style="edgeStyle=orthogonalEdgeStyle;rounded=0;orthogonalLoop=1;jettySize=auto;html=1;entryX=1;entryY=0.5;entryDx=0;entryDy=0;" parent="1" source="9r9zIMGVRPfAhy_iePYk-65" target="2cL5k20LGx7MLXg2ZPZY-46" edge="1">
          <mxGeometry relative="1" as="geometry">
            <Array as="points">
              <mxPoint x="1165" y="455" />
            </Array>
          </mxGeometry>
        </mxCell>
        <mxCell id="9r9zIMGVRPfAhy_iePYk-65" value="Is transaction successful?" style="rhombus;whiteSpace=wrap;html=1;" parent="1" vertex="1">
          <mxGeometry x="1097.5" y="290" width="135" height="60" as="geometry" />
        </mxCell>
        <mxCell id="9r9zIMGVRPfAhy_iePYk-70" value="Yes" style="text;html=1;strokeColor=none;fillColor=none;align=center;verticalAlign=middle;whiteSpace=wrap;rounded=0;" parent="1" vertex="1">
          <mxGeometry x="1150" y="340" width="60" height="30" as="geometry" />
        </mxCell>
        <mxCell id="9r9zIMGVRPfAhy_iePYk-71" value="No" style="text;html=1;strokeColor=none;fillColor=none;align=center;verticalAlign=middle;whiteSpace=wrap;rounded=0;" parent="1" vertex="1">
          <mxGeometry x="1150" y="270" width="60" height="30" as="geometry" />
        </mxCell>
        <mxCell id="9r9zIMGVRPfAhy_iePYk-74" style="edgeStyle=orthogonalEdgeStyle;rounded=0;orthogonalLoop=1;jettySize=auto;html=1;entryX=0.5;entryY=0;entryDx=0;entryDy=0;" parent="1" source="9r9zIMGVRPfAhy_iePYk-72" target="2cL5k20LGx7MLXg2ZPZY-48" edge="1">
          <mxGeometry relative="1" as="geometry" />
        </mxCell>
        <mxCell id="9r9zIMGVRPfAhy_iePYk-75" value="Yes" style="edgeLabel;html=1;align=center;verticalAlign=middle;resizable=0;points=[];" parent="9r9zIMGVRPfAhy_iePYk-74" vertex="1" connectable="0">
          <mxGeometry x="-0.0891" y="3" relative="1" as="geometry">
            <mxPoint as="offset" />
          </mxGeometry>
        </mxCell>
        <mxCell id="bipFphcELUd_ku-ffHA3-3" style="edgeStyle=orthogonalEdgeStyle;rounded=0;orthogonalLoop=1;jettySize=auto;html=1;entryX=0;entryY=0.5;entryDx=0;entryDy=0;" edge="1" parent="1" source="9r9zIMGVRPfAhy_iePYk-72" target="9r9zIMGVRPfAhy_iePYk-76">
          <mxGeometry relative="1" as="geometry" />
        </mxCell>
        <mxCell id="bipFphcELUd_ku-ffHA3-4" value="No" style="edgeLabel;html=1;align=center;verticalAlign=middle;resizable=0;points=[];" vertex="1" connectable="0" parent="bipFphcELUd_ku-ffHA3-3">
          <mxGeometry x="-0.1287" y="1" relative="1" as="geometry">
            <mxPoint y="1" as="offset" />
          </mxGeometry>
        </mxCell>
        <mxCell id="9r9zIMGVRPfAhy_iePYk-72" value="Is position &lt;br&gt;opening?" style="rhombus;whiteSpace=wrap;html=1;" parent="1" vertex="1">
          <mxGeometry x="780" y="582.5" width="100" height="60" as="geometry" />
        </mxCell>
        <mxCell id="9r9zIMGVRPfAhy_iePYk-76" value="Is closed？" style="rhombus;whiteSpace=wrap;html=1;" parent="1" vertex="1">
          <mxGeometry x="1006.25" y="580" width="100" height="65" as="geometry" />
        </mxCell>
        <mxCell id="9r9zIMGVRPfAhy_iePYk-78" style="edgeStyle=orthogonalEdgeStyle;rounded=0;orthogonalLoop=1;jettySize=auto;html=1;" parent="1" edge="1">
          <mxGeometry relative="1" as="geometry">
            <mxPoint x="1055.91" y="687.5" as="targetPoint" />
            <mxPoint x="1055.91" y="645" as="sourcePoint" />
          </mxGeometry>
        </mxCell>
        <mxCell id="9r9zIMGVRPfAhy_iePYk-79" style="edgeStyle=orthogonalEdgeStyle;rounded=0;orthogonalLoop=1;jettySize=auto;html=1;exitX=0;exitY=0.5;exitDx=0;exitDy=0;entryX=0.426;entryY=0.004;entryDx=0;entryDy=0;entryPerimeter=0;" parent="1" source="9r9zIMGVRPfAhy_iePYk-81" target="2cL5k20LGx7MLXg2ZPZY-57" edge="1">
          <mxGeometry relative="1" as="geometry">
            <mxPoint x="950" y="792.5" as="targetPoint" />
            <Array as="points">
              <mxPoint x="970" y="720" />
              <mxPoint x="970" y="793" />
              <mxPoint x="971" y="793" />
            </Array>
          </mxGeometry>
        </mxCell>
        <mxCell id="9r9zIMGVRPfAhy_iePYk-80" style="edgeStyle=orthogonalEdgeStyle;rounded=0;orthogonalLoop=1;jettySize=auto;html=1;entryX=0.56;entryY=0.006;entryDx=0;entryDy=0;entryPerimeter=0;" parent="1" target="2cL5k20LGx7MLXg2ZPZY-59" edge="1">
          <mxGeometry relative="1" as="geometry">
            <mxPoint x="1153.12" y="795.5" as="targetPoint" />
            <mxPoint x="1078.37" y="720" as="sourcePoint" />
          </mxGeometry>
        </mxCell>
        <mxCell id="9r9zIMGVRPfAhy_iePYk-81" value="Is being liquidated?" style="rhombus;whiteSpace=wrap;html=1;" parent="1" vertex="1">
          <mxGeometry x="1006.25" y="687.5" width="100" height="65" as="geometry" />
        </mxCell>
        <mxCell id="9r9zIMGVRPfAhy_iePYk-82" value="Yes" style="text;html=1;strokeColor=none;fillColor=none;align=center;verticalAlign=middle;whiteSpace=wrap;rounded=0;" parent="1" vertex="1">
          <mxGeometry x="1086" y="692" width="60" height="30" as="geometry" />
        </mxCell>
        <mxCell id="9r9zIMGVRPfAhy_iePYk-83" value="No" style="text;html=1;strokeColor=none;fillColor=none;align=center;verticalAlign=middle;whiteSpace=wrap;rounded=0;" parent="1" vertex="1">
          <mxGeometry x="961" y="692" width="60" height="30" as="geometry" />
        </mxCell>
        <mxCell id="9r9zIMGVRPfAhy_iePYk-87" value="" style="endArrow=none;dashed=1;html=1;dashPattern=1 3;strokeWidth=2;rounded=0;fontFamily=Helvetica;" parent="1" edge="1">
          <mxGeometry width="50" height="50" relative="1" as="geometry">
            <mxPoint x="50" y="680" as="sourcePoint" />
            <mxPoint x="1420" y="680" as="targetPoint" />
          </mxGeometry>
        </mxCell>
        <mxCell id="9r9zIMGVRPfAhy_iePYk-88" value="Position status" style="text;html=1;align=center;verticalAlign=middle;resizable=0;points=[];autosize=1;strokeColor=none;fillColor=none;fontFamily=Helvetica;" parent="1" vertex="1">
          <mxGeometry x="47.5" y="650" width="100" height="30" as="geometry" />
        </mxCell>
        <mxCell id="9r9zIMGVRPfAhy_iePYk-89" value="" style="endArrow=none;dashed=1;html=1;dashPattern=1 3;strokeWidth=2;rounded=0;fontFamily=Helvetica;" parent="1" edge="1">
          <mxGeometry width="50" height="50" relative="1" as="geometry">
            <mxPoint x="60" y="860" as="sourcePoint" />
            <mxPoint x="1430" y="860" as="targetPoint" />
          </mxGeometry>
        </mxCell>
        <mxCell id="9r9zIMGVRPfAhy_iePYk-90" value="Position status update" style="text;html=1;align=center;verticalAlign=middle;resizable=0;points=[];autosize=1;strokeColor=none;fillColor=none;fontFamily=Helvetica;" parent="1" vertex="1">
          <mxGeometry x="47.5" y="830" width="140" height="30" as="geometry" />
        </mxCell>
      </root>
    </mxGraphModel>
  </diagram>
</mxfile>
